<?xml version="1.0" standalone="no"?>
<!DOCTYPE svg PUBLIC "-//W3C//DTD SVG 20010904//EN"
 "http://www.w3.org/TR/2001/REC-SVG-20010904/DTD/svg10.dtd">
<svg version="1.0" xmlns="http://www.w3.org/2000/svg"
 width="50.000000pt" height="50.000000pt" viewBox="0 0 50.000000 50.000000"
 preserveAspectRatio="xMidYMid meet">

<g transform="translate(0.000000,50.000000) scale(0.100000,-0.100000)"
fill="#000000" stroke="none">
<path d="M176 466 c-135 -50 -192 -197 -127 -324 40 -77 107 -116 201 -116
136 0 224 88 224 224 0 68 -16 113 -58 158 -53 59 -165 86 -240 58z m152 -22
c111 -46 161 -173 112 -282 -10 -23 -26 -45 -34 -48 -8 -3 -35 4 -60 15 -52
23 -57 38 -26 89 20 32 28 120 14 156 -19 49 -130 57 -159 12 -21 -32 -17
-131 6 -170 30 -48 24 -65 -27 -87 -25 -11 -52 -18 -60 -15 -23 9 -54 86 -54
134 -1 147 154 253 288 196z m-33 -60 c22 -14 25 -24 25 -73 0 -39 -6 -66 -21
-90 -30 -50 -22 -82 28 -106 60 -29 61 -33 12 -55 -56 -25 -122 -25 -178 0
-49 22 -48 26 12 55 50 24 58 56 28 106 -30 49 -29 142 1 163 29 20 62 20 93
0z"/>
</g>
</svg>
