<?xml version="1.0" standalone="no"?>
<!DOCTYPE svg PUBLIC "-//W3C//DTD SVG 20010904//EN"
 "http://www.w3.org/TR/2001/REC-SVG-20010904/DTD/svg10.dtd">
<svg version="1.0" xmlns="http://www.w3.org/2000/svg"
 width="50.000000pt" height="50.000000pt" viewBox="0 0 50.000000 50.000000"
 preserveAspectRatio="xMidYMid meet">

<g transform="translate(0.000000,50.000000) scale(0.100000,-0.100000)"
fill="#000000" stroke="none">
<path d="M164 449 c-47 -13 -59 -34 -60 -108 -1 -47 4 -77 17 -103 31 -61 26
-74 -41 -108 -56 -28 -80 -56 -80 -91 0 -5 83 -9 201 -9 l201 0 -6 25 c-6 24
-5 25 49 25 48 0 55 2 55 20 0 26 -30 56 -75 74 -44 19 -52 37 -32 84 23 54
28 113 14 142 -15 31 -70 50 -109 39 -19 -5 -40 -3 -63 7 -19 8 -36 14 -37 13
-2 0 -17 -5 -34 -10z m94 -35 c20 -13 22 -22 20 -77 -1 -38 -9 -75 -20 -96
-11 -18 -18 -48 -16 -65 3 -27 11 -35 60 -58 31 -15 62 -36 68 -48 11 -20 9
-20 -170 -20 -179 0 -181 0 -170 20 6 12 37 33 68 48 49 23 57 31 60 58 2 17
-5 47 -15 65 -24 43 -28 134 -8 165 23 35 74 39 123 8z m101 1 c16 -8 31 -21
34 -29 7 -18 -6 -100 -24 -142 -17 -43 -8 -59 51 -89 64 -33 67 -55 5 -55 -31
0 -65 10 -105 30 -67 34 -72 47 -41 108 14 28 19 56 18 110 -2 56 1 72 13 76
8 2 16 4 18 5 2 0 16 -6 31 -14z"/>
</g>
</svg>
