<?xml version="1.0" standalone="no"?>
<!DOCTYPE svg PUBLIC "-//W3C//DTD SVG 20010904//EN"
 "http://www.w3.org/TR/2001/REC-SVG-20010904/DTD/svg10.dtd">
<svg version="1.0" xmlns="http://www.w3.org/2000/svg"
 width="50.000000pt" height="50.000000pt" viewBox="0 0 50.000000 50.000000"
 preserveAspectRatio="xMidYMid meet">

<g transform="translate(0.000000,50.000000) scale(0.100000,-0.100000)"
fill="#000000" stroke="none">
<path d="M69 431 l-29 -29 0 -152 0 -152 29 -29 29 -29 152 0 152 0 29 29 29
29 0 152 0 152 -29 29 -29 29 -152 0 -152 0 -29 -29z m348 -13 c22 -21 23 -28
23 -167 0 -197 6 -191 -189 -191 -197 0 -191 -6 -191 189 0 197 -6 191 189
191 135 0 146 -1 168 -22z"/>
<path d="M275 379 c-93 -21 -84 -10 -87 -102 -3 -82 -3 -82 -32 -87 -56 -10
-61 -70 -7 -78 44 -7 61 23 61 108 l0 78 46 7 c26 3 53 9 61 12 11 5 14 -4 11
-43 -3 -45 -5 -49 -32 -54 -57 -10 -61 -71 -4 -78 47 -6 59 24 56 139 -3 115
-3 114 -73 98z m55 -23 c0 -20 -6 -23 -67 -31 -44 -6 -53 -4 -53 8 0 14 27 22
113 36 4 0 7 -5 7 -13z m-2 -168 c-7 -21 -36 -34 -49 -21 -6 6 -8 16 -5 22 10
15 59 14 54 -1z m-140 -30 c-7 -21 -36 -34 -49 -21 -6 6 -8 16 -5 22 10 15 59
14 54 -1z"/>
</g>
</svg>
