<?xml version="1.0" standalone="no"?>
<!DOCTYPE svg PUBLIC "-//W3C//DTD SVG 20010904//EN"
 "http://www.w3.org/TR/2001/REC-SVG-20010904/DTD/svg10.dtd">
<svg version="1.0" xmlns="http://www.w3.org/2000/svg"
 width="50.000000pt" height="50.000000pt" viewBox="0 0 50.000000 50.000000"
 preserveAspectRatio="xMidYMid meet">

<g transform="translate(0.000000,50.000000) scale(0.100000,-0.100000)"
fill="#000000" stroke="none">
<path d="M217 474 c-4 -4 -7 -18 -7 -30 0 -35 -32 -48 -69 -26 -30 17 -31 16
-53 -5 -22 -22 -22 -24 -5 -53 22 -37 9 -67 -30 -72 -25 -3 -28 -7 -28 -38 0
-31 3 -35 28 -38 39 -5 51 -33 29 -71 -17 -30 -16 -31 5 -53 22 -22 24 -22 52
-5 37 22 59 13 69 -27 7 -27 12 -31 43 -31 29 0 34 4 37 27 5 44 27 55 68 33
34 -18 35 -18 56 3 21 21 21 22 3 56 -22 41 -11 63 33 68 24 3 27 7 27 38 0
31 -3 35 -27 38 -44 5 -55 27 -33 68 18 34 18 35 -3 56 -21 21 -22 21 -56 3
-41 -22 -63 -11 -68 33 -2 22 -9 28 -33 30 -17 2 -34 0 -38 -4z m59 -46 c13
-44 54 -60 84 -33 19 17 22 18 37 2 16 -15 15 -18 -2 -37 -27 -30 -11 -71 33
-84 43 -12 43 -40 0 -52 -44 -13 -60 -54 -33 -84 17 -19 18 -22 2 -37 -15 -16
-18 -15 -37 2 -30 27 -71 11 -84 -33 -12 -42 -40 -43 -52 0 -12 42 -56 58 -85
32 -18 -16 -21 -17 -36 -1 -16 15 -15 18 1 36 26 29 10 73 -32 85 -42 12 -42
40 0 52 42 12 58 56 32 85 -16 18 -17 21 -1 36 15 16 18 15 36 -1 29 -26 73
-10 85 32 12 43 40 42 52 0z"/>
<path d="M195 305 c-33 -33 -33 -78 1 -112 21 -21 32 -24 62 -20 45 8 61 24
69 69 11 74 -79 117 -132 63z m95 -15 c11 -11 20 -29 20 -40 0 -26 -34 -60
-60 -60 -26 0 -60 34 -60 60 0 11 9 29 20 40 11 11 29 20 40 20 11 0 29 -9 40
-20z"/>
</g>
</svg>
