<?xml version="1.0" standalone="no"?>
<!DOCTYPE svg PUBLIC "-//W3C//DTD SVG 20010904//EN"
 "http://www.w3.org/TR/2001/REC-SVG-20010904/DTD/svg10.dtd">
<svg version="1.0" xmlns="http://www.w3.org/2000/svg"
 width="50.000000pt" height="50.000000pt" viewBox="0 0 50.000000 50.000000"
 preserveAspectRatio="xMidYMid meet">

<g transform="translate(0.000000,50.000000) scale(0.100000,-0.100000)"
fill="#000000" stroke="none">
<path d="M203 430 c-18 -11 -33 -24 -33 -28 0 -5 -11 -7 -24 -5 -17 4 -33 -3
-50 -20 -31 -31 -34 -82 -10 -128 20 -40 14 -54 -34 -78 -36 -18 -52 -37 -52
-62 0 -5 16 -9 35 -9 24 0 35 -5 35 -15 0 -13 27 -15 180 -15 153 0 180 2 180
15 0 10 11 15 35 15 19 0 35 5 35 11 0 24 -24 52 -56 65 -43 18 -50 34 -30 73
25 48 21 98 -11 127 -15 14 -36 24 -47 22 -12 -2 -29 4 -38 12 -53 48 -66 50
-115 20z m75 -16 c46 -23 53 -80 18 -159 -24 -56 -15 -77 44 -105 29 -13 56
-32 61 -42 9 -17 0 -18 -150 -18 -140 0 -160 2 -154 15 3 9 24 25 47 37 81 40
88 55 58 117 -28 58 -27 117 3 147 28 28 32 29 73 8z m-123 -45 c4 -6 7 -26 7
-46 0 -20 9 -50 19 -67 29 -48 25 -65 -26 -87 -24 -11 -51 -26 -59 -35 -10 -9
-29 -14 -48 -12 l-33 4 34 19 c73 43 78 50 62 87 -8 18 -16 52 -18 74 -4 35
-1 44 18 58 27 19 35 20 44 5z m233 -5 c27 -18 30 -70 6 -115 -20 -40 -10 -65
36 -89 53 -27 58 -40 16 -40 -20 0 -36 4 -36 9 0 5 -25 20 -55 35 -61 29 -65
38 -35 97 12 22 20 45 19 52 -4 34 2 67 14 67 7 0 23 -7 35 -16z"/>
</g>
</svg>
