<?xml version="1.0" standalone="no"?>
<!DOCTYPE svg PUBLIC "-//W3C//DTD SVG 20010904//EN"
 "http://www.w3.org/TR/2001/REC-SVG-20010904/DTD/svg10.dtd">
<svg version="1.0" xmlns="http://www.w3.org/2000/svg"
 width="50.000000pt" height="50.000000pt" viewBox="0 0 50.000000 50.000000"
 preserveAspectRatio="xMidYMid meet">

<g transform="translate(0.000000,50.000000) scale(0.100000,-0.100000)"
fill="#000000" stroke="none">
<path d="M166 425 c-51 -18 -104 -70 -118 -116 -17 -60 -3 -108 48 -157 39
-37 43 -45 33 -63 -16 -31 -2 -36 39 -12 37 21 39 21 77 3 50 -22 158 -34 152
-17 -2 7 8 26 23 43 22 26 28 45 34 107 5 56 3 85 -7 109 -41 95 -171 142
-281 103z m169 -24 c61 -28 96 -71 102 -125 3 -25 3 -46 0 -46 -3 0 -23 11
-43 25 -87 59 -210 3 -203 -94 3 -38 -5 -61 -22 -61 -5 0 -9 5 -9 10 0 6 -20
29 -44 53 -24 23 -47 54 -51 70 -32 125 136 230 270 168z m40 -157 c37 -17 60
-61 50 -94 -12 -39 -57 -70 -100 -70 -107 0 -156 109 -72 160 39 24 78 25 122
4z"/>
<path d="M257 184 c-14 -14 -7 -35 11 -32 9 2 17 10 17 17 0 16 -18 25 -28 15z"/>
<path d="M304 179 c-10 -17 13 -36 27 -22 12 12 4 33 -11 33 -5 0 -12 -5 -16
-11z"/>
<path d="M364 179 c-10 -17 13 -36 27 -22 12 12 4 33 -11 33 -5 0 -12 -5 -16
-11z"/>
</g>
</svg>
